<svg version="1.1" viewBox="0.0 0.0 960.0 540.0" fill="none" stroke="none" stroke-linecap="square" stroke-miterlimit="10" xmlns:xlink="http://www.w3.org/1999/xlink" xmlns="http://www.w3.org/2000/svg"><clipPath id="g12e305fbc82_0_37.0"><path d="m0 0l960.0 0l0 540.0l-960.0 0l0 -540.0z" clip-rule="nonzero"/></clipPath><g clip-path="url(#g12e305fbc82_0_37.0)"><path fill="#ffffff" d="m0 0l960.0 0l0 540.0l-960.0 0z" fill-rule="evenodd"/><path fill="#000000" d="m-2.535433 -7.414698l965.0709 0l0 371.937l-965.0709 0z" fill-rule="evenodd"/><path stroke="#666666" stroke-width="1.0" stroke-linejoin="round" stroke-linecap="butt" d="m-2.535433 -7.414698l965.0709 0l0 371.937l-965.0709 0z" fill-rule="evenodd"/><path fill="#000000" fill-opacity="0.0" d="m32.72441 28.186352l894.55115 0l0 60.12598l-894.55115 0z" fill-rule="evenodd"/><path fill="#000000" fill-opacity="0.0" d="m94.96063 43.249344l770.07874 0l0 51.74803l-770.07874 0z" fill-rule="evenodd"/><path fill="#ffffff" d="m106.02313 88.60559q-0.421875 -2.453125 -0.421875 -4.953125q0 -2.5 0.390625 -4.90625q0.390625 -2.421875 1.15625 -4.71875q0.765625 -2.3125 2.0 -4.25q1.25 -1.953125 2.828125 -3.40625q3.390625 -3.09375 8.421875 -3.09375q6.375 0 10.078125 6.375q1.78125 3.09375 2.40625 6.375l0 0.03125l-5.40625 1.453125q-0.421875 -2.78125 -1.0 -4.0625q-0.5625 -1.296875 -1.140625 -2.171875q-0.5625 -0.875 -1.25 -1.4375q-1.609375 -1.328125 -3.65625 -1.328125q-2.046875 0 -3.5 0.921875q-1.453125 0.921875 -2.390625 2.421875q-0.9375 1.5 -1.5625 3.5q-1.15625 3.6875 -1.15625 8.328125q0 12.296875 5.84375 14.6875q1.25 0.515625 2.65625 0.515625q1.40625 0 2.5 -0.359375q1.109375 -0.359375 1.859375 -0.9375q0.765625 -0.59375 1.34375 -1.40625q0.59375 -0.8125 0.9375 -1.625q0.359375 -0.828125 0.5625 -1.6875q0.390625 -1.5 0.390625 -2.8125l5.8125 0.8125q-1.171875 5.0 -4.09375 8.671875q-3.6875 4.578125 -9.296875 4.578125q-6.875 0 -11.0625 -6.53125q-2.375 -3.671875 -3.25 -8.984375zm29.36679 4.734375l5.0 -1.640625q0.03125 0 0.109375 0.390625q0.078125 0.390625 0.265625 1.03125q0.203125 0.640625 0.546875 1.40625q0.359375 0.765625 1.03125 1.546875q0.671875 0.765625 1.59375 1.390625q2.03125 1.421875 5.046875 1.421875q3.015625 0 4.4375 -1.484375q1.421875 -1.484375 1.421875 -3.515625q0 -2.046875 -0.421875 -3.3125q-0.40625 -1.265625 -1.453125 -2.203125q-1.75 -1.5625 -6.046875 -2.8125q-7.578125 -2.21875 -9.734375 -6.84375q-1.125 -2.421875 -1.125 -5.703125q0 -2.765625 1.953125 -5.390625q3.421875 -4.34375 9.6875 -4.34375q4.984375 0 8.15625 2.984375q2.265625 2.109375 3.390625 5.3125l0.484375 1.390625q0.234375 0.625 0.3125 0.796875l-5.078125 1.796875q-1.71875 -5.46875 -5.359375 -6.734375q-0.90625 -0.3125 -1.90625 -0.3125q-5.40625 0 -5.40625 5.5625q0 2.5625 1.5 3.90625q1.25 1.171875 3.28125 1.84375l1.25 0.421875q1.078125 0.359375 1.171875 0.390625l1.15625 0.390625q4.453125 1.5625 6.015625 2.765625q2.28125 1.765625 2.984375 3.25q1.40625 3.046875 1.40625 6.4375q0 2.65625 -1.5 5.390625q-2.03125 3.671875 -6.4375 4.8125q-1.6875 0.4375 -3.703125 0.4375q-2.0 0 -3.765625 -0.359375q-1.75 -0.359375 -3.03125 -0.984375q-1.265625 -0.625 -2.34375 -1.4375q-1.0625 -0.8125 -1.796875 -1.703125q-0.71875 -0.90625 -1.265625 -1.796875q-0.546875 -0.90625 -0.875 -1.703125q-0.328125 -0.8125 -0.546875 -1.4375q-0.203125 -0.625 -0.296875 -0.984375q-0.078125 -0.375 -0.109375 -0.375zm28.544235 -4.734375q-0.421875 -2.453125 -0.421875 -4.953125q0 -2.5 0.390625 -4.90625q0.390625 -2.421875 1.15625 -4.71875q0.765625 -2.3125 2.0 -4.25q1.25 -1.953125 2.828125 -3.40625q3.390625 -3.09375 8.421875 -3.09375q6.375 0 10.078125 6.375q1.78125 3.09375 2.40625 6.375l0 0.03125l-5.40625 1.453125q-0.421875 -2.78125 -1.0 -4.0625q-0.5625 -1.296875 -1.140625 -2.171875q-0.5625 -0.875 -1.25 -1.4375q-1.609375 -1.328125 -3.65625 -1.328125q-2.046875 0 -3.5 0.921875q-1.453125 0.921875 -2.390625 2.421875q-0.9375 1.5 -1.5625 3.5q-1.15625 3.6875 -1.15625 8.328125q0 12.296875 5.84375 14.6875q1.25 0.515625 2.65625 0.515625q1.40625 0 2.5 -0.359375q1.109375 -0.359375 1.859375 -0.9375q0.765625 -0.59375 1.34375 -1.40625q0.59375 -0.8125 0.9375 -1.625q0.359375 -0.828125 0.5625 -1.6875q0.390625 -1.5 0.390625 -2.8125l5.8125 0.8125q-1.171875 5.0 -4.09375 8.671875q-3.6875 4.578125 -9.296875 4.578125q-6.875 0 -11.0625 -6.53125q-2.375 -3.671875 -3.25 -8.984375zm28.74179 2.140625l0 -4.71875l13.328125 0l0 4.71875l-13.328125 0zm14.529953 -23.75l8.515625 -3.0l4.53125 0l0 33.46875l5.734375 0l0 5.984375l-18.3125 0l0 -5.984375l6.359375 0l0 -27.625l-5.0625 1.484375l-1.765625 -4.328125zm23.310211 36.453125q0 -3.5625 0.40625 -5.0q0.421875 -1.4375 0.90625 -2.625q0.5 -1.203125 1.203125 -2.234375q0.703125 -1.046875 1.75 -2.359375q1.0625 -1.328125 2.421875 -2.546875q3.078125 -2.84375 6.09375 -4.796875q3.015625 -1.953125 4.09375 -2.84375q1.09375 -0.90625 1.8125 -2.0q1.28125 -1.84375 1.28125 -5.203125q0 -1.796875 -1.515625 -3.375q-1.609375 -1.75 -4.65625 -1.75q-4.109375 0 -5.703125 3.46875q-0.75 1.71875 -0.75 3.71875l-6.234375 0q0 -3.625 1.65625 -6.4375q1.65625 -2.828125 4.6875 -4.40625q3.03125 -1.578125 6.296875 -1.578125q3.28125 0 5.53125 0.921875q2.25 0.90625 3.734375 2.40625q3.171875 3.203125 3.171875 7.34375q0 3.828125 -2.390625 6.953125q-1.953125 2.578125 -5.1875 5.046875l-1.921875 1.4375q-3.234375 2.34375 -6.4375 5.4375q-3.203125 3.078125 -3.40625 4.4375l18.796875 0l0 5.984375l-25.640625 0zm31.371948 -36.453125l8.515625 -3.0l4.53125 0l0 33.46875l5.734375 0l0 5.984375l-18.3125 0l0 -5.984375l6.359375 0l0 -27.625l-5.0625 1.484375l-1.765625 -4.328125z" fill-rule="nonzero"/><path fill="#ffffff" d="m106.53876 167.44934l0 -39.453125l6.21875 0l0 39.453125l-6.21875 0zm32.035355 -20.59375l0 20.59375l-5.578125 0l0 -19.140625q0 -1.875 -1.140625 -2.984375q-1.125 -1.109375 -2.6875 -1.109375q-1.5625 0 -3.109375 0.9375q-1.53125 0.921875 -2.28125 1.828125l0 20.46875l-5.578125 0l0 -27.46875l5.578125 0l0 2.90625q1.515625 -1.5 3.15625 -2.4375q1.65625 -0.9375 3.875 -0.9375q3.390625 0 5.578125 1.84375q2.1875 1.828125 2.1875 5.5zm2.929779 -2.171875l0 -4.703125l4.09375 0l0 -10.03125l5.578125 0l0 10.03125l5.75 0l0 4.703125l-5.75 0l0 14.75q0 2.203125 0.78125 3.03125q0.796875 0.8125 2.671875 0.8125q0.765625 0 1.53125 -0.09375q0.765625 -0.109375 0.765625 -0.140625l0 3.9375q-1.40625 0.65625 -2.171875 0.828125q-0.765625 0.1875 -1.875 0.1875q-1.109375 0 -1.640625 -0.03125q-0.53125 -0.015625 -1.3125 -0.171875q-0.765625 -0.15625 -1.328125 -0.421875q-0.546875 -0.28125 -1.15625 -0.796875q-0.59375 -0.53125 -0.984375 -1.265625q-0.859375 -1.65625 -0.859375 -4.3125l0 -16.3125l-4.09375 0zm18.409897 22.765625l0 -27.46875l5.578125 0l0 3.765625q0.109375 -0.125 0.46875 -0.671875l0.625 -0.9375q1.921875 -2.625 6.359375 -2.625q0.46875 0 0.9375 0.078125l0 4.65625q-4.75 0.078125 -6.828125 2.625q-0.9375 1.15625 -1.5625 2.953125l0 17.625l-5.578125 0zm20.628555 -16.90625q-0.15625 1.390625 -0.15625 2.984375q0 1.578125 0.15625 2.859375q0.15625 1.265625 0.5625 2.546875q0.40625 1.28125 1.03125 2.21875q1.40625 2.078125 3.953125 2.078125q5.65625 0 5.65625 -9.5q0 -5.578125 -1.671875 -7.734375q-1.359375 -1.78125 -3.984375 -1.78125q-4.8125 0 -5.546875 6.328125zm-5.734375 3.15625q0 -6.515625 3.0 -10.34375q3.015625 -3.84375 8.28125 -3.84375q3.484375 0 6.046875 1.765625q5.171875 3.625 5.171875 12.453125q0 11.015625 -6.875 13.515625q-1.890625 0.703125 -4.328125 0.703125q-2.4375 0 -4.375 -0.703125q-1.921875 -0.703125 -3.203125 -1.953125q-1.265625 -1.25 -2.125 -3.078125q-1.59375 -3.390625 -1.59375 -8.515625zm42.554794 -6.796875q-2.578125 -2.6875 -5.625 -2.6875q-3.171875 0 -4.5625 2.734375q-1.21875 2.40625 -1.21875 7.1875q0 5.296875 1.71875 7.328125q1.453125 1.734375 4.328125 1.734375q3.015625 0 5.0 -2.671875q0.328125 -0.46875 0.359375 -0.5l0 -13.125zm5.578125 16.828125q0 1.8125 0.71875 3.71875l-5.875 0q-0.078125 -0.125 -0.15625 -0.359375l-0.265625 -1.703125q-1.984375 2.53125 -5.78125 2.53125q-6.5625 0 -9.53125 -6.0625q-1.671875 -3.390625 -1.671875 -7.640625q0 -9.921875 4.90625 -13.046875q2.59375 -1.65625 6.65625 -1.65625q2.015625 0 3.484375 0.796875q1.46875 0.78125 1.9375 1.484375l0 -13.796875l5.578125 0l0 35.734375zm4.8412323 -3.15625l0 -20.59375l5.5625 0l0 19.140625q0 1.875 1.125 2.984375q1.140625 1.09375 2.6875 1.09375q1.5625 0 3.109375 -0.921875q1.546875 -0.921875 2.296875 -1.828125l0 -20.46875l5.578125 0l0 27.46875l-5.578125 0l0 -2.921875q-3.375 3.390625 -7.03125 3.390625q-3.28125 0 -5.4375 -1.71875q-2.3125 -1.84375 -2.3125 -5.625zm24.44017 -6.671875q0 -8.171875 3.578125 -11.640625q2.8125 -2.75 7.875 -2.75q5.0625 0 7.921875 4.265625q0.9375 1.375 1.3125 2.578125l-4.71875 2.078125q-0.203125 -2.125 -1.75 -3.375q-1.03125 -0.84375 -2.578125 -0.84375q-6.0625 0 -6.0625 9.453125q0 4.671875 1.578125 7.109375q1.59375 2.421875 4.640625 2.421875q2.140625 0 3.46875 -1.5625q1.140625 -1.34375 1.671875 -2.890625l4.265625 1.875q-0.59375 2.328125 -2.546875 4.40625q-2.734375 2.890625 -7.015625 2.890625q-11.640625 0 -11.640625 -14.015625zm23.304901 -9.21875l0 -4.703125l4.09375 0l0 -10.03125l5.578125 0l0 10.03125l5.75 0l0 4.703125l-5.75 0l0 14.75q0 2.203125 0.78125 3.03125q0.796875 0.8125 2.671875 0.8125q0.765625 0 1.53125 -0.09375q0.765625 -0.109375 0.765625 -0.140625l0 3.9375q-1.40625 0.65625 -2.171875 0.828125q-0.765625 0.1875 -1.875 0.1875q-1.109375 0 -1.640625 -0.03125q-0.53125 -0.015625 -1.3125 -0.171875q-0.765625 -0.15625 -1.328125 -0.421875q-0.546875 -0.28125 -1.15625 -0.796875q-0.59375 -0.53125 -0.984375 -1.265625q-0.859375 -1.65625 -0.859375 -4.3125l0 -16.3125l-4.09375 0zm18.316162 22.765625l0 -27.46875l5.5625 0l0 27.46875l-5.5625 0zm-0.390625 -29.859375l0 -6.328125l6.328125 0l0 6.328125l-6.328125 0zm16.19159 12.953125q-0.15625 1.390625 -0.15625 2.984375q0 1.578125 0.15625 2.859375q0.15625 1.265625 0.5625 2.546875q0.40625 1.28125 1.03125 2.21875q1.40625 2.078125 3.953125 2.078125q5.65625 0 5.65625 -9.5q0 -5.578125 -1.671875 -7.734375q-1.359375 -1.78125 -3.984375 -1.78125q-4.8125 0 -5.546875 6.328125zm-5.734375 3.15625q0 -6.515625 3.0 -10.34375q3.015625 -3.84375 8.28125 -3.84375q3.484375 0 6.046875 1.765625q5.171875 3.625 5.171875 12.453125q0 11.015625 -6.875 13.515625q-1.890625 0.703125 -4.328125 0.703125q-2.4375 0 -4.375 -0.703125q-1.921875 -0.703125 -3.203125 -1.953125q-1.265625 -1.25 -2.125 -3.078125q-1.59375 -3.390625 -1.59375 -8.515625zm47.27356 -6.84375l0 20.59375l-5.578125 0l0 -19.140625q0 -1.875 -1.140625 -2.984375q-1.125 -1.109375 -2.6875 -1.109375q-1.5625 0 -3.109375 0.9375q-1.53125 0.921875 -2.28125 1.828125l0 20.46875l-5.578125 0l0 -27.46875l5.578125 0l0 2.90625q1.515625 -1.5 3.15625 -2.4375q1.65625 -0.9375 3.875 -0.9375q3.390625 0 5.578125 1.84375q2.1875 1.828125 2.1875 5.5zm15.428497 -2.171875l0 -4.703125l4.09375 0l0 -10.03125l5.578125 0l0 10.03125l5.75 0l0 4.703125l-5.75 0l0 14.75q0 2.203125 0.78125 3.03125q0.796875 0.8125 2.671875 0.8125q0.765625 0 1.53125 -0.09375q0.765625 -0.109375 0.765625 -0.140625l0 3.9375q-1.40625 0.65625 -2.171875 0.828125q-0.765625 0.1875 -1.875 0.1875q-1.109375 0 -1.640625 -0.03125q-0.53125 -0.015625 -1.3125 -0.171875q-0.765625 -0.15625 -1.328125 -0.421875q-0.546875 -0.28125 -1.15625 -0.796875q-0.59375 -0.53125 -0.984375 -1.265625q-0.859375 -1.65625 -0.859375 -4.3125l0 -16.3125l-4.09375 0zm22.816162 5.859375q-0.15625 1.390625 -0.15625 2.984375q0 1.578125 0.15625 2.859375q0.15625 1.265625 0.5625 2.546875q0.40625 1.28125 1.03125 2.21875q1.40625 2.078125 3.953125 2.078125q5.65625 0 5.65625 -9.5q0 -5.578125 -1.671875 -7.734375q-1.359375 -1.78125 -3.984375 -1.78125q-4.8125 0 -5.546875 6.328125zm-5.734375 3.15625q0 -6.515625 3.0 -10.34375q3.015625 -3.84375 8.28125 -3.84375q3.484375 0 6.046875 1.765625q5.171875 3.625 5.171875 12.453125q0 11.015625 -6.875 13.515625q-1.890625 0.703125 -4.328125 0.703125q-2.4375 0 -4.375 -0.703125q-1.921875 -0.703125 -3.203125 -1.953125q-1.265625 -1.25 -2.125 -3.078125q-1.59375 -3.390625 -1.59375 -8.515625zm59.79309 -15.28125q0 -5.1875 -8.703125 -5.1875l-4.296875 0l0 11.84375l4.296875 0q4.015625 0 6.359375 -1.71875q2.34375 -1.734375 2.34375 -4.9375zm-19.21875 29.03125l0 -39.453125l13.46875 0q7.34375 0 10.28125 4.21875q1.6875 2.453125 1.6875 5.96875q0 6.25 -3.796875 9.6875q-2.78125 2.46875 -7.34375 2.46875l-8.078125 0l0 17.109375l-6.21875 0zm29.366882 0l0 -27.46875l5.578125 0l0 3.765625q0.109375 -0.125 0.46875 -0.671875l0.625 -0.9375q1.921875 -2.625 6.359375 -2.625q0.46875 0 0.9375 0.078125l0 4.65625q-4.75 0.078125 -6.828125 2.625q-0.9375 1.15625 -1.5625 2.953125l0 17.625l-5.578125 0zm20.62854 -16.90625q-0.15625 1.390625 -0.15625 2.984375q0 1.578125 0.15625 2.859375q0.15625 1.265625 0.5625 2.546875q0.40625 1.28125 1.03125 2.21875q1.40625 2.078125 3.953125 2.078125q5.65625 0 5.65625 -9.5q0 -5.578125 -1.671875 -7.734375q-1.359375 -1.78125 -3.984375 -1.78125q-4.8125 0 -5.546875 6.328125zm-5.734375 3.15625q0 -6.515625 3.0 -10.34375q3.015625 -3.84375 8.28125 -3.84375q3.484375 0 6.046875 1.765625q5.171875 3.625 5.171875 12.453125q0 11.015625 -6.875 13.515625q-1.890625 0.703125 -4.328125 0.703125q-2.4375 0 -4.375 -0.703125q-1.921875 -0.703125 -3.203125 -1.953125q-1.265625 -1.25 -2.125 -3.078125q-1.59375 -3.390625 -1.59375 -8.515625zm44.46106 3.109375q-1.359375 1.375 -3.40625 2.15625q-2.046875 0.78125 -4.125 0.78125q-2.078125 0 -3.40625 -0.53125q-0.234375 0.234375 -0.859375 0.65625q-1.234375 0.828125 -1.234375 1.75q0 1.21875 3.9375 1.6875q0.734375 0.109375 0.90625 0.125q0.1875 0 0.9375 0.015625q0.765625 0.015625 1.171875 0.03125q0.421875 0.015625 1.34375 0.125q0.921875 0.09375 1.765625 0.28125q4.46875 1.015625 5.71875 2.125q2.609375 2.375 2.609375 5.65625q0 7.546875 -12.8125 7.546875q-5.34375 0 -8.78125 -1.765625q-3.671875 -1.875 -3.671875 -5.75q0 -3.4375 5.0 -5.34375q-1.5625 -0.203125 -2.625 -1.359375q-1.0625 -1.171875 -1.0625 -2.75q0 -3.34375 4.0 -5.078125q-1.34375 -0.703125 -2.5 -3.078125q-1.140625 -2.390625 -1.140625 -5.046875q0 -2.65625 1.5 -4.890625q1.5 -2.25 4.046875 -3.4375q2.546875 -1.203125 5.703125 -1.203125q1.453125 0 3.0 0.5625q1.5625 0.5625 2.203125 1.125q2.25 -1.609375 4.796875 -1.71875q0.359375 -0.015625 1.1875 -0.03125q0.84375 -0.015625 1.203125 -0.015625l0 4.6875l-0.09375 0q-2.53125 -0.265625 -3.390625 0.171875q-0.265625 0.140625 -0.25 0.265625q0.015625 0.125 0.296875 0.9375q0.296875 0.8125 0.453125 1.25q0.4375 1.453125 0.4375 3.1875q0 1.734375 -0.75 3.609375q-0.734375 1.875 -2.109375 3.265625zm-7.328125 -12.59375q-2.390625 0 -3.859375 1.359375q-1.46875 1.359375 -1.46875 3.921875q0 2.5625 1.328125 4.03125q1.34375 1.46875 3.984375 1.46875q3.359375 0 4.375 -3.640625q0.25 -0.90625 0.25 -1.828125q0 -0.9375 -0.265625 -1.8125q-0.25 -0.890625 -0.765625 -1.703125q-1.171875 -1.796875 -3.578125 -1.796875zm-6.0625 25.265625q-0.5 0.59375 -0.734375 1.140625q-0.234375 0.546875 -0.234375 1.15625q0 0.625 0.234375 1.046875q0.234375 0.4375 0.578125 0.703125q0.34375 0.28125 0.921875 0.484375q0.59375 0.203125 1.078125 0.296875q0.5 0.09375 1.25 0.140625q1.046875 0.078125 2.234375 0.078125q1.1875 0 1.71875 -0.015625q0.53125 0 1.40625 -0.0625q0.890625 -0.046875 1.46875 -0.171875q0.578125 -0.109375 1.25 -0.328125q0.671875 -0.203125 1.046875 -0.515625q0.9375 -0.71875 0.9375 -1.796875q0 -1.0625 -0.890625 -1.765625q-0.890625 -0.703125 -2.25 -1.03125q-1.34375 -0.328125 -2.703125 -0.515625q-1.34375 -0.171875 -2.5625 -0.28125q-1.203125 -0.09375 -1.515625 -0.234375q-2.734375 1.09375 -3.234375 1.671875zm22.075562 -2.03125l0 -27.46875l5.578125 0l0 3.765625q0.109375 -0.125 0.46875 -0.671875l0.625 -0.9375q1.921875 -2.625 6.359375 -2.625q0.46875 0 0.9375 0.078125l0 4.65625q-4.75 0.078125 -6.828125 2.625q-0.9375 1.15625 -1.5625 2.953125l0 17.625l-5.578125 0zm21.170227 -7.078125q0 1.53125 0.75 2.21875q0.765625 0.6875 1.875 0.6875q1.125 0 1.6875 -0.125q0.5625 -0.125 1.109375 -0.390625l0.96875 -0.5q0.40625 -0.234375 0.9375 -0.640625l0.75 -0.609375q0.203125 -0.171875 0.671875 -0.59375l0.46875 -0.4375l0 -6.4375q-5.828125 1.359375 -7.625 2.921875q-1.59375 1.40625 -1.59375 3.90625zm10.0 7.078125q-0.78125 -0.46875 -0.78125 -2.421875l-0.484375 0.578125q-2.25 2.390625 -6.40625 2.390625q-5.0625 0 -6.9375 -3.5625q-0.953125 -1.78125 -0.953125 -4.09375q0 -2.3125 0.8125 -4.125q0.828125 -1.8125 2.671875 -3.1875q3.359375 -2.5 11.296875 -4.09375q0 -1.84375 -0.125 -2.265625q-0.109375 -0.421875 -0.25 -0.78125q-0.140625 -0.359375 -0.359375 -0.546875q-0.203125 -0.203125 -0.515625 -0.4375q-0.3125 -0.234375 -0.71875 -0.34375q-1.015625 -0.265625 -2.265625 -0.265625q-1.234375 0 -2.3125 0.390625q-1.078125 0.375 -1.71875 0.84375q-0.640625 0.46875 -1.15625 1.09375q-0.671875 0.828125 -0.96875 1.453125l-3.640625 -2.234375q1.140625 -2.375 1.96875 -3.171875q0.84375 -0.796875 1.640625 -1.359375q0.8125 -0.578125 1.734375 -0.90625q2.1875 -0.8125 4.453125 -0.8125q2.265625 0 3.59375 0.25q1.34375 0.25 2.546875 0.890625q1.21875 0.625 2.0 1.6875q1.671875 2.328125 1.671875 6.78125l0 14.375q0 0.71875 0.265625 2.046875q0.28125 1.328125 0.515625 1.828125l-5.578125 0zm15.49762 -24.5625q3.390625 -3.375 7.53125 -3.375q2.4375 0 4.3125 0.96875q1.875 0.953125 2.765625 2.90625q3.875 -3.875 7.703125 -3.875q3.3125 0 5.703125 1.71875q2.578125 1.84375 2.578125 5.625l0 20.59375l-5.578125 0l0 -19.140625q0 -1.84375 -1.359375 -2.96875q-1.34375 -1.125 -2.953125 -1.125q-1.59375 0 -3.125 0.9375q-1.53125 0.921875 -2.296875 1.828125l0 20.46875l-5.5625 0l0 -19.140625q0 -1.875 -1.140625 -2.984375q-1.125 -1.109375 -2.703125 -1.109375q-1.578125 0 -3.375 0.953125q-1.796875 0.953125 -2.5 1.8125l0 20.46875l-5.578125 0l0 -27.46875l5.578125 0l0 2.90625zm41.53241 0q3.390625 -3.375 7.53125 -3.375q2.4375 0 4.3125 0.96875q1.875 0.953125 2.765625 2.90625q3.875 -3.875 7.703125 -3.875q3.3125 0 5.703125 1.71875q2.578125 1.84375 2.578125 5.625l0 20.59375l-5.578125 0l0 -19.140625q0 -1.84375 -1.359375 -2.96875q-1.34375 -1.125 -2.953125 -1.125q-1.59375 0 -3.125 0.9375q-1.53125 0.921875 -2.296875 1.828125l0 20.46875l-5.5625 0l0 -19.140625q0 -1.875 -1.140625 -2.984375q-1.125 -1.109375 -2.703125 -1.109375q-1.578125 0 -3.375 0.953125q-1.796875 0.953125 -2.5 1.8125l0 20.46875l-5.578125 0l0 -27.46875l5.578125 0l0 2.90625zm35.860535 24.5625l0 -27.46875l5.5625 0l0 27.46875l-5.5625 0zm-0.390625 -29.859375l0 -6.328125l6.328125 0l0 6.328125l-6.328125 0zm32.16034 9.265625l0 20.59375l-5.578125 0l0 -19.140625q0 -1.875 -1.140625 -2.984375q-1.125 -1.109375 -2.6875 -1.109375q-1.5625 0 -3.109375 0.9375q-1.53125 0.921875 -2.28125 1.828125l0 20.46875l-5.578125 0l0 -27.46875l5.578125 0l0 2.90625q1.515625 -1.5 3.15625 -2.4375q1.65625 -0.9375 3.875 -0.9375q3.390625 0 5.578125 1.84375q2.1875 1.828125 2.1875 5.5zm22.914185 9.953125q-1.359375 1.375 -3.40625 2.15625q-2.046875 0.78125 -4.125 0.78125q-2.078125 0 -3.40625 -0.53125q-0.234375 0.234375 -0.859375 0.65625q-1.234375 0.828125 -1.234375 1.75q0 1.21875 3.9375 1.6875q0.734375 0.109375 0.90625 0.125q0.1875 0 0.9375 0.015625q0.765625 0.015625 1.171875 0.03125q0.421875 0.015625 1.34375 0.125q0.921875 0.09375 1.765625 0.28125q4.46875 1.015625 5.71875 2.125q2.609375 2.375 2.609375 5.65625q0 7.546875 -12.8125 7.546875q-5.34375 0 -8.78125 -1.765625q-3.671875 -1.875 -3.671875 -5.75q0 -3.4375 5.0 -5.34375q-1.5625 -0.203125 -2.625 -1.359375q-1.0625 -1.171875 -1.0625 -2.75q0 -3.34375 4.0 -5.078125q-1.34375 -0.703125 -2.5 -3.078125q-1.140625 -2.390625 -1.140625 -5.046875q0 -2.65625 1.5 -4.890625q1.5 -2.25 4.046875 -3.4375q2.546875 -1.203125 5.703125 -1.203125q1.453125 0 3.0 0.5625q1.5625 0.5625 2.203125 1.125q2.25 -1.609375 4.796875 -1.71875q0.359375 -0.015625 1.1875 -0.03125q0.84375 -0.015625 1.203125 -0.015625l0 4.6875l-0.09375 0q-2.53125 -0.265625 -3.390625 0.171875q-0.265625 0.140625 -0.25 0.265625q0.015625 0.125 0.296875 0.9375q0.296875 0.8125 0.453125 1.25q0.4375 1.453125 0.4375 3.1875q0 1.734375 -0.75 3.609375q-0.734375 1.875 -2.109375 3.265625zm-7.328125 -12.59375q-2.390625 0 -3.859375 1.359375q-1.46875 1.359375 -1.46875 3.921875q0 2.5625 1.328125 4.03125q1.34375 1.46875 3.984375 1.46875q3.359375 0 4.375 -3.640625q0.25 -0.90625 0.25 -1.828125q0 -0.9375 -0.265625 -1.8125q-0.25 -0.890625 -0.765625 -1.703125q-1.171875 -1.796875 -3.578125 -1.796875zm-6.0625 25.265625q-0.5 0.59375 -0.734375 1.140625q-0.234375 0.546875 -0.234375 1.15625q0 0.625 0.234375 1.046875q0.234375 0.4375 0.578125 0.703125q0.34375 0.28125 0.921875 0.484375q0.59375 0.203125 1.078125 0.296875q0.5 0.09375 1.25 0.140625q1.046875 0.078125 2.234375 0.078125q1.1875 0 1.71875 -0.015625q0.53125 0 1.40625 -0.0625q0.890625 -0.046875 1.46875 -0.171875q0.578125 -0.109375 1.25 -0.328125q0.671875 -0.203125 1.046875 -0.515625q0.9375 -0.71875 0.9375 -1.796875q0 -1.0625 -0.890625 -1.765625q-0.890625 -0.703125 -2.25 -1.03125q-1.34375 -0.328125 -2.703125 -0.515625q-1.34375 -0.171875 -2.5625 -0.28125q-1.203125 -0.09375 -1.515625 -0.234375q-2.734375 1.09375 -3.234375 1.671875z" fill-rule="nonzero"/><path fill="#ffffff" d="m106.53876 295.44934l0 -39.453125l6.21875 0l0 39.453125l-6.21875 0zm32.035355 -20.59375l0 20.59375l-5.578125 0l0 -19.140625q0 -1.875 -1.140625 -2.984375q-1.125 -1.109375 -2.6875 -1.109375q-1.5625 0 -3.109375 0.9375q-1.53125 0.921875 -2.28125 1.828125l0 20.46875l-5.578125 0l0 -27.46875l5.578125 0l0 2.90625q1.515625 -1.5 3.15625 -2.4375q1.65625 -0.9375 3.875 -0.9375q3.390625 0 5.578125 1.84375q2.1875 1.828125 2.1875 5.5zm2.929779 -2.171875l0 -4.703125l4.09375 0l0 -10.03125l5.578125 0l0 10.03125l5.75 0l0 4.703125l-5.75 0l0 14.75q0 2.203125 0.78125 3.03125q0.796875 0.8125 2.671875 0.8125q0.765625 0 1.53125 -0.09375q0.765625 -0.109375 0.765625 -0.140625l0 3.9375q-1.40625 0.65625 -2.171875 0.828125q-0.765625 0.1875 -1.875 0.1875q-1.109375 0 -1.640625 -0.03125q-0.53125 -0.015625 -1.3125 -0.171875q-0.765625 -0.15625 -1.328125 -0.421875q-0.546875 -0.28125 -1.15625 -0.796875q-0.59375 -0.53125 -0.984375 -1.265625q-0.859375 -1.65625 -0.859375 -4.3125l0 -16.3125l-4.09375 0zm18.409897 22.765625l0 -27.46875l5.578125 0l0 3.765625q0.109375 -0.125 0.46875 -0.671875l0.625 -0.9375q1.921875 -2.625 6.359375 -2.625q0.46875 0 0.9375 0.078125l0 4.65625q-4.75 0.078125 -6.828125 2.625q-0.9375 1.15625 -1.5625 2.953125l0 17.625l-5.578125 0zm20.628555 -16.90625q-0.15625 1.390625 -0.15625 2.984375q0 1.578125 0.15625 2.859375q0.15625 1.265625 0.5625 2.546875q0.40625 1.28125 1.03125 2.21875q1.40625 2.078125 3.953125 2.078125q5.65625 0 5.65625 -9.5q0 -5.578125 -1.671875 -7.734375q-1.359375 -1.78125 -3.984375 -1.78125q-4.8125 0 -5.546875 6.328125zm-5.734375 3.15625q0 -6.515625 3.0 -10.34375q3.015625 -3.84375 8.28125 -3.84375q3.484375 0 6.046875 1.765625q5.171875 3.625 5.171875 12.453125q0 11.015625 -6.875 13.515625q-1.890625 0.703125 -4.328125 0.703125q-2.4375 0 -4.375 -0.703125q-1.921875 -0.703125 -3.203125 -1.953125q-1.265625 -1.25 -2.125 -3.078125q-1.59375 -3.390625 -1.59375 -8.515625zm42.554794 -6.796875q-2.578125 -2.6875 -5.625 -2.6875q-3.171875 0 -4.5625 2.734375q-1.21875 2.40625 -1.21875 7.1875q0 5.296875 1.71875 7.328125q1.453125 1.734375 4.328125 1.734375q3.015625 0 5.0 -2.671875q0.328125 -0.46875 0.359375 -0.5l0 -13.125zm5.578125 16.828125q0 1.8125 0.71875 3.71875l-5.875 0q-0.078125 -0.125 -0.15625 -0.359375l-0.265625 -1.703125q-1.984375 2.53125 -5.78125 2.53125q-6.5625 0 -9.53125 -6.0625q-1.671875 -3.390625 -1.671875 -7.640625q0 -9.921875 4.90625 -13.046875q2.59375 -1.65625 6.65625 -1.65625q2.015625 0 3.484375 0.796875q1.46875 0.78125 1.9375 1.484375l0 -13.796875l5.578125 0l0 35.734375zm4.8412323 -3.15625l0 -20.59375l5.5625 0l0 19.140625q0 1.875 1.125 2.984375q1.140625 1.09375 2.6875 1.09375q1.5625 0 3.109375 -0.921875q1.546875 -0.921875 2.296875 -1.828125l0 -20.46875l5.578125 0l0 27.46875l-5.578125 0l0 -2.921875q-3.375 3.390625 -7.03125 3.390625q-3.28125 0 -5.4375 -1.71875q-2.3125 -1.84375 -2.3125 -5.625zm24.44017 -6.671875q0 -8.171875 3.578125 -11.640625q2.8125 -2.75 7.875 -2.75q5.0625 0 7.921875 4.265625q0.9375 1.375 1.3125 2.578125l-4.71875 2.078125q-0.203125 -2.125 -1.75 -3.375q-1.03125 -0.84375 -2.578125 -0.84375q-6.0625 0 -6.0625 9.453125q0 4.671875 1.578125 7.109375q1.59375 2.421875 4.640625 2.421875q2.140625 0 3.46875 -1.5625q1.140625 -1.34375 1.671875 -2.890625l4.265625 1.875q-0.59375 2.328125 -2.546875 4.40625q-2.734375 2.890625 -7.015625 2.890625q-11.640625 0 -11.640625 -14.015625zm23.304901 -9.21875l0 -4.703125l4.09375 0l0 -10.03125l5.578125 0l0 10.03125l5.75 0l0 4.703125l-5.75 0l0 14.75q0 2.203125 0.78125 3.03125q0.796875 0.8125 2.671875 0.8125q0.765625 0 1.53125 -0.09375q0.765625 -0.109375 0.765625 -0.140625l0 3.9375q-1.40625 0.65625 -2.171875 0.828125q-0.765625 0.1875 -1.875 0.1875q-1.109375 0 -1.640625 -0.03125q-0.53125 -0.015625 -1.3125 -0.171875q-0.765625 -0.15625 -1.328125 -0.421875q-0.546875 -0.28125 -1.15625 -0.796875q-0.59375 -0.53125 -0.984375 -1.265625q-0.859375 -1.65625 -0.859375 -4.3125l0 -16.3125l-4.09375 0zm18.316162 22.765625l0 -27.46875l5.5625 0l0 27.46875l-5.5625 0zm-0.390625 -29.859375l0 -6.328125l6.328125 0l0 6.328125l-6.328125 0zm16.19159 12.953125q-0.15625 1.390625 -0.15625 2.984375q0 1.578125 0.15625 2.859375q0.15625 1.265625 0.5625 2.546875q0.40625 1.28125 1.03125 2.21875q1.40625 2.078125 3.953125 2.078125q5.65625 0 5.65625 -9.5q0 -5.578125 -1.671875 -7.734375q-1.359375 -1.78125 -3.984375 -1.78125q-4.8125 0 -5.546875 6.328125zm-5.734375 3.15625q0 -6.515625 3.0 -10.34375q3.015625 -3.84375 8.28125 -3.84375q3.484375 0 6.046875 1.765625q5.171875 3.625 5.171875 12.453125q0 11.015625 -6.875 13.515625q-1.890625 0.703125 -4.328125 0.703125q-2.4375 0 -4.375 -0.703125q-1.921875 -0.703125 -3.203125 -1.953125q-1.265625 -1.25 -2.125 -3.078125q-1.59375 -3.390625 -1.59375 -8.515625zm47.27356 -6.84375l0 20.59375l-5.578125 0l0 -19.140625q0 -1.875 -1.140625 -2.984375q-1.125 -1.109375 -2.6875 -1.109375q-1.5625 0 -3.109375 0.9375q-1.53125 0.921875 -2.28125 1.828125l0 20.46875l-5.578125 0l0 -27.46875l5.578125 0l0 2.90625q1.515625 -1.5 3.15625 -2.4375q1.65625 -0.9375 3.875 -0.9375q3.390625 0 5.578125 1.84375q2.1875 1.828125 2.1875 5.5zm15.82431 7.890625l0 -4.71875l13.328125 0l0 4.71875l-13.328125 0zm28.570312 12.703125q0 -3.5625 0.40625 -5.0q0.421875 -1.4375 0.90625 -2.625q0.5 -1.203125 1.203125 -2.234375q0.703125 -1.046875 1.75 -2.359375q1.0625 -1.328125 2.421875 -2.546875q3.078125 -2.84375 6.09375 -4.796875q3.015625 -1.953125 4.09375 -2.84375q1.09375 -0.90625 1.8125 -2.0q1.28125 -1.84375 1.28125 -5.203125q0 -1.796875 -1.515625 -3.375q-1.609375 -1.75 -4.65625 -1.75q-4.109375 0 -5.703125 3.46875q-0.75 1.71875 -0.75 3.71875l-6.234375 0q0 -3.625 1.65625 -6.4375q1.65625 -2.828125 4.6875 -4.40625q3.03125 -1.578125 6.296875 -1.578125q3.28125 0 5.53125 0.921875q2.25 0.90625 3.734375 2.40625q3.171875 3.203125 3.171875 7.34375q0 3.828125 -2.390625 6.953125q-1.953125 2.578125 -5.1875 5.046875l-1.921875 1.4375q-3.234375 2.34375 -6.4375 5.4375q-3.203125 3.078125 -3.40625 4.4375l18.796875 0l0 5.984375l-25.640625 0z" fill-rule="nonzero"/><path fill="#000000" fill-opacity="0.0" d="m94.96063 404.95013l770.07874 0l0 88.409454l-770.07874 0z" fill-rule="evenodd"/><path fill="#000000" d="m113.38251 459.91574l3.75 0q5.453125 0 8.390625 -3.9375q2.890625 -3.90625 2.890625 -10.28125q0 -12.15625 -7.78125 -14.3125q-1.59375 -0.453125 -3.5 -0.453125l-3.75 0l0 28.984375zm-6.21875 5.234375l0 -39.453125l9.296875 0q14.265625 0 17.234375 11.484375q0.9375 3.671875 0.9375 7.734375q0 4.0625 -0.5625 6.859375q-0.5625 2.78125 -1.921875 5.28125q-1.34375 2.5 -3.375 4.265625q-4.453125 3.828125 -12.3125 3.828125l-9.296875 0zm31.65834 0l0 -27.46875l5.578125 0l0 3.765625q0.109375 -0.125 0.46875 -0.671875l0.625 -0.9375q1.921875 -2.625 6.359375 -2.625q0.46875 0 0.9375 0.078125l0 4.65625q-4.75 0.078125 -6.828125 2.625q-0.9375 1.15625 -1.5625 2.953125l0 17.625l-5.578125 0zm13.357727 0l0 -6.328125l6.359375 0l0 6.328125l-6.359375 0zm21.591583 -10.109375l5.0 -1.640625q0.03125 0 0.109375 0.390625q0.078125 0.390625 0.265625 1.03125q0.203125 0.640625 0.546875 1.40625q0.359375 0.765625 1.03125 1.546875q0.671875 0.765625 1.59375 1.390625q2.03125 1.421875 5.046875 1.421875q3.015625 0 4.4375 -1.484375q1.421875 -1.484375 1.421875 -3.515625q0 -2.046875 -0.421875 -3.3125q-0.40625 -1.265625 -1.453125 -2.203125q-1.75 -1.5625 -6.046875 -2.8125q-7.578125 -2.21875 -9.734375 -6.84375q-1.125 -2.421875 -1.125 -5.703125q0 -2.765625 1.953125 -5.390625q3.421875 -4.34375 9.6875 -4.34375q4.984375 0 8.15625 2.984375q2.265625 2.109375 3.390625 5.3125l0.484375 1.390625q0.234375 0.625 0.3125 0.796875l-5.078125 1.796875q-1.71875 -5.46875 -5.359375 -6.734375q-0.90625 -0.3125 -1.90625 -0.3125q-5.40625 0 -5.40625 5.5625q0 2.5625 1.5 3.90625q1.25 1.171875 3.28125 1.84375l1.25 0.421875q1.078125 0.359375 1.171875 0.390625l1.15625 0.390625q4.453125 1.5625 6.015625 2.765625q2.28125 1.765625 2.984375 3.25q1.40625 3.046875 1.40625 6.4375q0 2.65625 -1.5 5.390625q-2.03125 3.671875 -6.4375 4.8125q-1.6875 0.4375 -3.703125 0.4375q-2.0 0 -3.765625 -0.359375q-1.75 -0.359375 -3.03125 -0.984375q-1.265625 -0.625 -2.34375 -1.4375q-1.0625 -0.8125 -1.796875 -1.703125q-0.71875 -0.90625 -1.265625 -1.796875q-0.546875 -0.90625 -0.875 -1.703125q-0.328125 -0.8125 -0.546875 -1.4375q-0.203125 -0.625 -0.296875 -0.984375q-0.078125 -0.375 -0.109375 -0.375zm26.111938 -17.359375l6.203125 0l5.78125 16.484375l5.15625 -16.484375l6.203125 0l-9.171875 28.296875q-1.375 4.28125 -2.296875 5.625q-0.90625 1.359375 -1.65625 2.140625q-0.734375 0.78125 -1.59375 1.25q-2.734375 1.53125 -8.078125 0.734375q-0.234375 -0.03125 -0.234375 -0.03125l0.265625 -5.1875q0.96875 0.421875 2.53125 0.421875q1.578125 0 2.53125 -0.421875q0.953125 -0.40625 1.53125 -1.0625q0.59375 -0.65625 1.0 -1.453125q0.421875 -0.78125 0.640625 -1.59375q0.390625 -1.59375 0.40625 -2.921875l-9.21875 -25.796875zm30.450836 10.484375l9.625 0q0 -2.03125 -0.703125 -3.515625q-1.34375 -2.734375 -3.75 -2.734375q-1.421875 0 -2.515625 0.640625q-1.078125 0.640625 -1.625 1.65625q-1.03125 1.90625 -1.03125 3.953125zm-4.375 11.65625q-0.8125 -1.78125 -1.140625 -3.671875q-0.328125 -1.890625 -0.328125 -4.765625q0 -2.875 0.671875 -5.578125q0.6875 -2.71875 1.75 -4.3125q1.078125 -1.609375 2.578125 -2.59375q2.578125 -1.6875 6.078125 -1.6875q3.28125 0 5.71875 1.953125q4.59375 3.6875 4.375 13.71875l-15.59375 0q0 5.265625 2.78125 7.078125q1.4375 0.9375 3.015625 0.9375q1.578125 0 2.609375 -0.390625q1.046875 -0.390625 1.671875 -0.875q0.625 -0.5 1.140625 -1.15625q0.703125 -0.90625 0.96875 -1.5625l3.546875 2.296875q-1.9375 3.359375 -4.125 4.796875q-2.421875 1.609375 -5.328125 1.609375q-2.890625 0 -4.9375 -0.75q-2.046875 -0.765625 -3.34375 -2.015625q-1.28125 -1.25 -2.109375 -3.03125zm39.88823 -15.21875q-2.578125 -2.6875 -5.625 -2.6875q-3.171875 0 -4.5624847 2.734375q-1.21875 2.40625 -1.21875 7.1875q0 5.296875 1.7187347 7.328125q1.453125 1.734375 4.328125 1.734375q3.015625 0 5.0 -2.671875q0.328125 -0.46875 0.359375 -0.5l0 -13.125zm5.578125 16.828125q0 1.8125 0.71875 3.71875l-5.875 0q-0.078125 -0.125 -0.15625 -0.359375l-0.265625 -1.703125q-1.984375 2.53125 -5.78125 2.53125q-6.5624847 0 -9.531235 -6.0625q-1.671875 -3.390625 -1.671875 -7.640625q0 -9.921875 4.90625 -13.046875q2.5937347 -1.65625 6.6562347 -1.65625q2.015625 0 3.484375 0.796875q1.46875 0.78125 1.9375 1.484375l0 -13.796875l5.578125 0l0 35.734375zm18.298279 3.71875l0 -39.453125l22.578125 0l0 5.234375l-16.359375 0l0 10.90625l11.390625 0l0 5.265625l-11.390625 0l0 18.046875l-6.21875 0zm28.117157 -7.078125q0 1.53125 0.75 2.21875q0.765625 0.6875 1.875 0.6875q1.125 0 1.6875 -0.125q0.5625 -0.125 1.109375 -0.390625l0.96875 -0.5q0.40625 -0.234375 0.9375 -0.640625l0.75 -0.609375q0.203125 -0.171875 0.671875 -0.59375l0.46875 -0.4375l0 -6.4375q-5.828125 1.359375 -7.625 2.921875q-1.59375 1.40625 -1.59375 3.90625zm10.0 7.078125q-0.78125 -0.46875 -0.78125 -2.421875l-0.484375 0.578125q-2.25 2.390625 -6.40625 2.390625q-5.0625 0 -6.9375 -3.5625q-0.953125 -1.78125 -0.953125 -4.09375q0 -2.3125 0.8125 -4.125q0.828125 -1.8125 2.671875 -3.1875q3.359375 -2.5 11.296875 -4.09375q0 -1.84375 -0.125 -2.265625q-0.109375 -0.421875 -0.25 -0.78125q-0.140625 -0.359375 -0.359375 -0.546875q-0.203125 -0.203125 -0.515625 -0.4375q-0.3125 -0.234375 -0.71875 -0.34375q-1.015625 -0.265625 -2.265625 -0.265625q-1.234375 0 -2.3125 0.390625q-1.078125 0.375 -1.71875 0.84375q-0.640625 0.46875 -1.15625 1.09375q-0.671875 0.828125 -0.96875 1.453125l-3.640625 -2.234375q1.140625 -2.375 1.96875 -3.171875q0.84375 -0.796875 1.640625 -1.359375q0.8125 -0.578125 1.734375 -0.90625q2.1875 -0.8125 4.453125 -0.8125q2.265625 0 3.59375 0.25q1.34375 0.25 2.546875 0.890625q1.21875 0.625 2.0 1.6875q1.671875 2.328125 1.671875 6.78125l0 14.375q0 0.71875 0.265625 2.046875q0.28125 1.328125 0.515625 1.828125l-5.578125 0zm30.52887 -20.59375l0 20.59375l-5.578125 0l0 -19.140625q0 -1.875 -1.140625 -2.984375q-1.125 -1.109375 -2.6875 -1.109375q-1.5625 0 -3.109375 0.9375q-1.53125 0.921875 -2.28125 1.828125l0 20.46875l-5.578125 0l0 -39.453125l5.578125 0l0 14.890625q3.390625 -3.375 7.03125 -3.375q3.28125 0 5.4375 1.71875q2.328125 1.84375 2.328125 5.625zm9.882904 13.515625q0 1.53125 0.75 2.21875q0.765625 0.6875 1.875 0.6875q1.125 0 1.6875 -0.125q0.5625 -0.125 1.109375 -0.390625l0.96875 -0.5q0.40625 -0.234375 0.9375 -0.640625l0.75 -0.609375q0.203125 -0.171875 0.671875 -0.59375l0.46875 -0.4375l0 -6.4375q-5.828125 1.359375 -7.625 2.921875q-1.59375 1.40625 -1.59375 3.90625zm10.0 7.078125q-0.78125 -0.46875 -0.78125 -2.421875l-0.484375 0.578125q-2.25 2.390625 -6.40625 2.390625q-5.0625 0 -6.9375 -3.5625q-0.953125 -1.78125 -0.953125 -4.09375q0 -2.3125 0.8125 -4.125q0.828125 -1.8125 2.671875 -3.1875q3.359375 -2.5 11.296875 -4.09375q0 -1.84375 -0.125 -2.265625q-0.109375 -0.421875 -0.25 -0.78125q-0.140625 -0.359375 -0.359375 -0.546875q-0.203125 -0.203125 -0.515625 -0.4375q-0.3125 -0.234375 -0.71875 -0.34375q-1.015625 -0.265625 -2.265625 -0.265625q-1.234375 0 -2.3125 0.390625q-1.078125 0.375 -1.71875 0.84375q-0.640625 0.46875 -1.15625 1.09375q-0.671875 0.828125 -0.96875 1.453125l-3.640625 -2.234375q1.140625 -2.375 1.96875 -3.171875q0.84375 -0.796875 1.640625 -1.359375q0.8125 -0.578125 1.734375 -0.90625q2.1875 -0.8125 4.453125 -0.8125q2.265625 0 3.59375 0.25q1.34375 0.25 2.546875 0.890625q1.21875 0.625 2.0 1.6875q1.671875 2.328125 1.671875 6.78125l0 14.375q0 0.71875 0.265625 2.046875q0.28125 1.328125 0.515625 1.828125l-5.578125 0zm25.575745 -20.546875q-2.578125 -2.6875 -5.625 -2.6875q-3.171875 0 -4.5625 2.734375q-1.21875 2.40625 -1.21875 7.1875q0 5.296875 1.71875 7.328125q1.453125 1.734375 4.328125 1.734375q3.015625 0 5.0 -2.671875q0.328125 -0.46875 0.359375 -0.5l0 -13.125zm5.578125 16.828125q0 1.8125 0.71875 3.71875l-5.875 0q-0.078125 -0.125 -0.15625 -0.359375l-0.265625 -1.703125q-1.984375 2.53125 -5.78125 2.53125q-6.5625 0 -9.53125 -6.0625q-1.671875 -3.390625 -1.671875 -7.640625q0 -9.921875 4.90625 -13.046875q2.59375 -1.65625 6.65625 -1.65625q2.015625 0 3.484375 0.796875q1.46875 0.78125 1.9375 1.484375l0 -13.796875l5.578125 0l0 35.734375zm15.720154 -6.390625l5.0 -1.640625q0.03125 0 0.109375 0.390625q0.078125 0.390625 0.265625 1.03125q0.203125 0.640625 0.546875 1.40625q0.359375 0.765625 1.03125 1.546875q0.671875 0.765625 1.59375 1.390625q2.03125 1.421875 5.046875 1.421875q3.015625 0 4.4375 -1.484375q1.421875 -1.484375 1.421875 -3.515625q0 -2.046875 -0.421875 -3.3125q-0.40625 -1.265625 -1.453125 -2.203125q-1.75 -1.5625 -6.046875 -2.8125q-7.578125 -2.21875 -9.734375 -6.84375q-1.125 -2.421875 -1.125 -5.703125q0 -2.765625 1.953125 -5.390625q3.421875 -4.34375 9.6875 -4.34375q4.984375 0 8.15625 2.984375q2.265625 2.109375 3.390625 5.3125l0.484375 1.390625q0.234375 0.625 0.3125 0.796875l-5.078125 1.796875q-1.71875 -5.46875 -5.359375 -6.734375q-0.90625 -0.3125 -1.90625 -0.3125q-5.40625 0 -5.40625 5.5625q0 2.5625 1.5 3.90625q1.25 1.171875 3.28125 1.84375l1.25 0.421875q1.078125 0.359375 1.171875 0.390625l1.15625 0.390625q4.453125 1.5625 6.015625 2.765625q2.28125 1.765625 2.984375 3.25q1.40625 3.046875 1.40625 6.4375q0 2.65625 -1.5 5.390625q-2.03125 3.671875 -6.4375 4.8125q-1.6875 0.4375 -3.703125 0.4375q-2.0 0 -3.765625 -0.359375q-1.75 -0.359375 -3.03125 -0.984375q-1.265625 -0.625 -2.34375 -1.4375q-1.0625 -0.8125 -1.796875 -1.703125q-0.71875 -0.90625 -1.265625 -1.796875q-0.546875 -0.90625 -0.875 -1.703125q-0.328125 -0.8125 -0.546875 -1.4375q-0.203125 -0.625 -0.296875 -0.984375q-0.078125 -0.375 -0.109375 -0.375zm29.559875 3.234375l0 -20.59375l5.5625 0l0 19.140625q0 1.875 1.125 2.984375q1.140625 1.09375 2.6875 1.09375q1.5625 0 3.109375 -0.921875q1.546875 -0.921875 2.296875 -1.828125l0 -20.46875l5.578125 0l0 27.46875l-5.578125 0l0 -2.921875q-3.375 3.390625 -7.03125 3.390625q-3.28125 0 -5.4375 -1.71875q-2.3125 -1.84375 -2.3125 -5.625zm26.14331 6.953125l0 -39.53125l5.5625 0l0 39.53125l-5.5625 0zm8.946777 -22.84375l0 -4.703125l4.09375 0l0 -10.03125l5.578125 0l0 10.03125l5.75 0l0 4.703125l-5.75 0l0 14.75q0 2.203125 0.78125 3.03125q0.796875 0.8125 2.671875 0.8125q0.765625 0 1.53125 -0.09375q0.765625 -0.109375 0.765625 -0.140625l0 3.9375q-1.40625 0.65625 -2.171875 0.828125q-0.765625 0.1875 -1.875 0.1875q-1.109375 0 -1.640625 -0.03125q-0.53125 -0.015625 -1.3125 -0.171875q-0.765625 -0.15625 -1.328125 -0.421875q-0.546875 -0.28125 -1.15625 -0.796875q-0.59375 -0.53125 -0.984375 -1.265625q-0.859375 -1.65625 -0.859375 -4.3125l0 -16.3125l-4.09375 0zm22.941162 15.6875q0 1.53125 0.75 2.21875q0.765625 0.6875 1.875 0.6875q1.125 0 1.6875 -0.125q0.5625 -0.125 1.109375 -0.390625l0.96875 -0.5q0.40625 -0.234375 0.9375 -0.640625l0.75 -0.609375q0.203125 -0.171875 0.671875 -0.59375l0.46875 -0.4375l0 -6.4375q-5.828125 1.359375 -7.625 2.921875q-1.59375 1.40625 -1.59375 3.90625zm10.0 7.078125q-0.78125 -0.46875 -0.78125 -2.421875l-0.484375 0.578125q-2.25 2.390625 -6.40625 2.390625q-5.0625 0 -6.9375 -3.5625q-0.953125 -1.78125 -0.953125 -4.09375q0 -2.3125 0.8125 -4.125q0.828125 -1.8125 2.671875 -3.1875q3.359375 -2.5 11.296875 -4.09375q0 -1.84375 -0.125 -2.265625q-0.109375 -0.421875 -0.25 -0.78125q-0.140625 -0.359375 -0.359375 -0.546875q-0.203125 -0.203125 -0.515625 -0.4375q-0.3125 -0.234375 -0.71875 -0.34375q-1.015625 -0.265625 -2.265625 -0.265625q-1.234375 0 -2.3125 0.390625q-1.078125 0.375 -1.71875 0.84375q-0.640625 0.46875 -1.15625 1.09375q-0.671875 0.828125 -0.96875 1.453125l-3.640625 -2.234375q1.140625 -2.375 1.96875 -3.171875q0.84375 -0.796875 1.640625 -1.359375q0.8125 -0.578125 1.734375 -0.90625q2.1875 -0.8125 4.453125 -0.8125q2.265625 0 3.59375 0.25q1.34375 0.25 2.546875 0.890625q1.21875 0.625 2.0 1.6875q1.671875 2.328125 1.671875 6.78125l0 14.375q0 0.71875 0.265625 2.046875q0.28125 1.328125 0.515625 1.828125l-5.578125 0zm30.294495 -20.59375l0 20.59375l-5.578125 0l0 -19.140625q0 -1.875 -1.140625 -2.984375q-1.125 -1.109375 -2.6875 -1.109375q-1.5625 0 -3.109375 0.9375q-1.53125 0.921875 -2.28125 1.828125l0 20.46875l-5.578125 0l0 -27.46875l5.578125 0l0 2.90625q1.515625 -1.5 3.15625 -2.4375q1.65625 -0.9375 3.875 -0.9375q3.390625 0 5.578125 1.84375q2.1875 1.828125 2.1875 5.5z" fill-rule="nonzero"/></g></svg>